<svg width="14" height="14" viewBox="0 0 14 14" fill="none" xmlns="http://www.w3.org/2000/svg">
<path d="M13.9702 7.0271C13.9697 6.60139 13.8004 6.19325 13.4994 5.89223C13.1984 5.59121 12.7902 5.4219 12.3645 5.42145C11.9747 5.42099 11.5982 5.56346 11.3063 5.82188C10.2444 5.14237 8.82758 4.71429 7.26483 4.66802L8.22116 1.39747L10.569 1.83373C10.569 1.85292 10.565 1.87098 10.5661 1.89017C10.5801 2.1588 10.7001 2.41091 10.8998 2.5912C11.0994 2.77149 11.3624 2.86523 11.6311 2.85186C11.8997 2.83777 12.1517 2.71775 12.332 2.51811C12.5122 2.31847 12.6059 2.05551 12.5925 1.78689C12.5785 1.51825 12.4585 1.26614 12.2589 1.08585C12.0592 0.905566 11.7962 0.811826 11.5275 0.825193C11.3564 0.834302 11.1904 0.886722 11.045 0.977537C10.8997 1.06835 10.7797 1.19459 10.6965 1.34442L10.6957 1.34413L7.86645 0.81842L6.73968 4.66745C5.17298 4.70893 3.7516 5.13475 2.68522 5.81285C2.39458 5.55994 2.02216 5.4209 1.63689 5.42145C1.21121 5.42198 0.803113 5.59131 0.502109 5.89231C0.201106 6.19332 0.0317727 6.60141 0.03125 7.0271C0.03125 7.57454 0.313155 8.07966 0.769733 8.37426C0.741196 8.53543 0.726562 8.69876 0.725994 8.86244C0.725994 11.1798 3.53545 13.0653 6.98885 13.0653C10.4423 13.0653 13.2511 11.1798 13.2511 8.86216C13.2511 8.70188 13.2365 8.54385 13.2102 8.38809C13.442 8.24441 13.6334 8.04406 13.7663 7.80595C13.8992 7.56783 13.9695 7.29979 13.9702 7.0271ZM4.01234 8.11973C4.01238 7.99015 4.03794 7.86186 4.08756 7.74217C4.13718 7.62247 4.20988 7.51372 4.30153 7.42213C4.39318 7.33054 4.50197 7.25789 4.62169 7.20834C4.74141 7.15879 4.86972 7.1333 4.99929 7.13334C5.12886 7.13338 5.25716 7.15894 5.37685 7.20855C5.49655 7.25817 5.60529 7.33088 5.69689 7.42253C5.78848 7.51418 5.86113 7.62297 5.91068 7.74269C5.96023 7.86241 5.98571 7.99072 5.98568 8.12029C5.9856 8.38197 5.88158 8.6329 5.69649 8.81789C5.5114 9.00287 5.26041 9.10675 4.99873 9.10667C4.73705 9.1066 4.48611 9.00258 4.30113 8.81749C4.11615 8.6324 4.01227 8.38141 4.01234 8.11973ZM9.31464 10.7887C9.28529 10.8191 8.57728 11.5395 6.97728 11.5395C5.36882 11.5395 4.72543 10.8092 4.69919 10.7782C4.6585 10.7272 4.63913 10.6625 4.64514 10.5976C4.65115 10.5326 4.68208 10.4726 4.73142 10.4299C4.78077 10.3873 4.84471 10.3654 4.90983 10.3689C4.97495 10.3724 5.03619 10.401 5.0807 10.4486C5.09538 10.4644 5.6321 11.0353 6.977 11.0353C8.34561 11.0353 8.94554 10.4441 8.95174 10.4385C8.99915 10.3951 9.06129 10.3715 9.12551 10.3723C9.18973 10.3732 9.25122 10.3985 9.29746 10.4431C9.34369 10.4876 9.37121 10.5482 9.3744 10.6123C9.37759 10.6765 9.35622 10.7397 9.31464 10.7887ZM9.11852 9.10653C8.98896 9.10659 8.86067 9.08113 8.74096 9.0316C8.62125 8.98207 8.51246 8.90945 8.42081 8.81789C8.32917 8.72632 8.25645 8.6176 8.20682 8.49793C8.1572 8.37826 8.13162 8.24998 8.13157 8.12043C8.13151 7.99088 8.15697 7.86258 8.2065 7.74287C8.25603 7.62316 8.32865 7.51437 8.42021 7.42273C8.51178 7.33108 8.62051 7.25837 8.74017 7.20874C8.85984 7.15911 8.98812 7.13354 9.11767 7.13348C9.37931 7.13337 9.63028 7.2372 9.81537 7.42213C10.0005 7.60706 10.1045 7.85794 10.1046 8.11959C10.1047 8.38123 10.0009 8.6322 9.81597 8.81729C9.63104 9.00238 9.38016 9.10642 9.11852 9.10653Z" fill="black"/>
</svg>
