<svg width="16" height="16" viewBox="0 0 16 16" fill="none" xmlns="http://www.w3.org/2000/svg">
<g clip-path="url(#clip0_1479_1572)">
<path fill-rule="evenodd" clip-rule="evenodd" d="M8 0C3.58233 0 0 3.67233 0 8.20233C0 11.8267 2.29233 14.9013 5.471 15.9857C5.871 16.0617 6.01767 15.808 6.01767 15.5913C6.01767 15.3957 6.01 14.7497 6.00667 14.0643C3.781 14.5603 3.31133 13.0963 3.31133 13.0963C2.94733 12.1483 2.423 11.8963 2.423 11.8963C1.69733 11.387 2.478 11.3977 2.478 11.3977C3.28133 11.4553 3.70433 12.2427 3.70433 12.2427C4.41767 13.4967 5.57567 13.1343 6.03233 12.9247C6.104 12.3947 6.31133 12.0327 6.54 11.828C4.76333 11.6203 2.89533 10.917 2.89533 7.774C2.89533 6.87867 3.20767 6.14667 3.71967 5.57233C3.63633 5.36567 3.36267 4.53133 3.797 3.40167C3.797 3.40167 4.469 3.18133 5.99767 4.24233C6.63567 4.06067 7.32033 3.96967 8 3.96633C8.68 3.96967 9.365 4.06067 10.0043 4.24233C11.531 3.18133 12.202 3.40167 12.202 3.40167C12.6373 4.53167 12.3633 5.36567 12.2803 5.57233C12.7937 6.14667 13.1037 6.87867 13.1037 7.774C13.1037 10.9247 11.2323 11.6183 9.45067 11.8213C9.73767 12.076 9.99333 12.575 9.99333 13.3403C9.99333 14.4377 9.98433 15.321 9.98433 15.5913C9.98433 15.8097 10.1283 16.0653 10.5337 15.9847C13.7107 14.899 16 11.8253 16 8.20233C16 3.67233 12.4183 0 8 0Z" fill="black"/>
<path fill-rule="evenodd" clip-rule="evenodd" d="M3.03067 11.777C3.013 11.818 2.95067 11.83 2.89367 11.802C2.83567 11.7753 2.803 11.7197 2.82167 11.6787C2.839 11.6367 2.90167 11.6253 2.95967 11.653C3.01767 11.68 3.05067 11.7363 3.03067 11.777ZM3.35467 12.1477C3.31667 12.1837 3.242 12.167 3.19133 12.1097C3.139 12.0523 3.12933 11.976 3.168 11.9393C3.20733 11.9027 3.27967 11.92 3.332 11.977C3.38433 12.035 3.39467 12.111 3.35467 12.1477ZM3.67 12.62C3.62133 12.655 3.541 12.6223 3.49133 12.5493C3.44233 12.476 3.44233 12.3887 3.49267 12.3537C3.54233 12.3187 3.621 12.3503 3.67133 12.4227C3.72033 12.4967 3.72033 12.5843 3.67 12.62ZM4.10233 13.0767C4.05833 13.126 3.965 13.1127 3.89667 13.045C3.82667 12.979 3.80733 12.885 3.85133 12.8353C3.89567 12.7857 3.98967 12.7997 4.05833 12.8667C4.128 12.9327 4.149 13.0273 4.10233 13.0767ZM4.69833 13.3413C4.679 13.4057 4.589 13.4347 4.49833 13.4077C4.40833 13.3793 4.349 13.3043 4.367 13.2393C4.386 13.1747 4.47633 13.144 4.56767 13.1733C4.65767 13.2013 4.71733 13.276 4.69833 13.3413ZM5.35333 13.3907C5.35533 13.4583 5.27867 13.514 5.18333 13.5153C5.08767 13.5177 5.01033 13.463 5.00933 13.3963C5.00933 13.328 5.08467 13.2727 5.18 13.271C5.27533 13.269 5.35333 13.3233 5.35333 13.3907ZM5.96233 13.2843C5.97367 13.3503 5.90767 13.418 5.81333 13.436C5.72033 13.4533 5.63433 13.4127 5.62267 13.3473C5.611 13.2797 5.67833 13.2117 5.771 13.194C5.86567 13.1773 5.95033 13.2177 5.96233 13.2843Z" fill="black"/>
</g>
<defs>
<clipPath id="clip0_1479_1572">
<rect width="16" height="16" fill="white"/>
</clipPath>
</defs>
</svg>
