<svg width="14" height="13" viewBox="0 0 14 13" fill="none" xmlns="http://www.w3.org/2000/svg">
<path d="M13.9109 2.2517C13.3904 2.48271 12.8381 2.63408 12.2726 2.70071C12.8685 2.34448 13.3143 1.78348 13.5268 1.12253C12.9669 1.45497 12.3543 1.68921 11.7155 1.8151C11.4487 1.53034 11.1262 1.30344 10.7681 1.14848C10.4099 0.993513 10.0238 0.913788 9.63355 0.914248C8.05847 0.914248 6.78142 2.1913 6.78142 3.76666C6.78142 3.9899 6.80654 4.20749 6.85536 4.41662C4.4847 4.29752 2.38271 3.16214 0.975833 1.43636C0.722086 1.87169 0.588828 2.36673 0.589754 2.87061C0.589754 3.86008 1.09324 4.73327 1.85862 5.24466C1.40566 5.23029 0.962689 5.10788 0.566612 4.88765L0.566329 4.92377C0.566329 6.30553 1.54959 7.45812 2.85458 7.72059C2.43439 7.83434 1.99381 7.85094 1.56624 7.76913C1.92946 8.90225 2.98271 9.72719 4.2307 9.75005C3.22039 10.5431 1.97265 10.9733 0.688249 10.9712C0.458239 10.9712 0.23105 10.9577 0.0078125 10.9311C1.31198 11.7694 2.82996 12.2143 4.38027 12.2127C9.62706 12.2127 12.4958 7.8665 12.4958 4.09714C12.4958 3.97353 12.4933 3.8502 12.4879 3.72772C13.0465 3.32448 13.5284 2.82461 13.9109 2.2517Z" fill="black"/>
</svg>
