<svg width="16" height="12" viewBox="0 0 16 12" fill="none" xmlns="http://www.w3.org/2000/svg">
<path d="M15.534 2.86665C15.534 2.73331 15.334 1.66665 14.8673 1.19998C14.2673 0.533313 13.6007 0.466646 13.2673 0.466646H13.2007C11.134 0.333313 8.06732 0.333313 8.00065 0.333313C8.00065 0.333313 4.86732 0.333313 2.80065 0.466646H2.73398C2.40065 0.466646 1.73398 0.533313 1.13398 1.19998C0.667318 1.73331 0.467318 2.79998 0.467318 2.93331C0.467318 2.99998 0.333984 4.19998 0.333984 5.46665V6.59998C0.333984 7.86665 0.467318 9.06665 0.467318 9.13331C0.467318 9.26665 0.667318 10.3333 1.13398 10.8C1.66732 11.4 2.33398 11.4666 2.73398 11.5333H2.93398C4.13398 11.6666 7.80065 11.6666 7.93398 11.6666C7.93398 11.6666 11.0673 11.6666 13.134 11.5333H13.2007C13.534 11.4666 14.2007 11.4 14.8007 10.8C15.2673 10.2666 15.4673 9.19998 15.4673 9.06665C15.4673 8.99998 15.6007 7.79998 15.6007 6.53331V5.39998C15.6673 4.19998 15.534 2.93331 15.534 2.86665ZM10.6007 6.13331L6.60065 8.26665C6.53398 8.26665 6.53398 8.33331 6.46732 8.33331C6.40065 8.33331 6.33398 8.33331 6.33398 8.26665C6.26732 8.19998 6.20065 8.13331 6.20065 7.99998V3.66665C6.20065 3.53331 6.26732 3.46665 6.33398 3.39998C6.40065 3.33331 6.53398 3.33331 6.66732 3.39998L10.6673 5.53331C10.8007 5.59998 10.8673 5.66665 10.8673 5.79998C10.8673 5.93331 10.734 6.06665 10.6007 6.13331Z" fill="black"/>
</svg>
